<?xml version="1.0" encoding="UTF-8" standalone="no"?>
<svg
   xmlns:dc="http://purl.org/dc/elements/1.1/"
   xmlns:cc="http://creativecommons.org/ns#"
   xmlns:rdf="http://www.w3.org/1999/02/22-rdf-syntax-ns#"
   xmlns:svg="http://www.w3.org/2000/svg"
   xmlns="http://www.w3.org/2000/svg"
   xmlns:sodipodi="http://sodipodi.sourceforge.net/DTD/sodipodi-0.dtd"
   xmlns:inkscape="http://www.inkscape.org/namespaces/inkscape"
   width="350"
   height="215"
   viewBox="0 0 92.604165 56.885418"
   version="1.1"
   id="svg8"
   inkscape:version="1.0.2-2 (e86c870879, 2021-01-15)"
   sodipodi:docname="logo.svg">
  <defs
     id="defs2" />
  <sodipodi:namedview
     id="base"
     pagecolor="#ffffff"
     bordercolor="#666666"
     borderopacity="1.0"
     inkscape:pageopacity="0.0"
     inkscape:pageshadow="2"
     inkscape:zoom="0.7"
     inkscape:cx="50.451231"
     inkscape:cy="515.00976"
     inkscape:document-units="mm"
     inkscape:current-layer="layer1"
     inkscape:document-rotation="0"
     showgrid="false"
     units="px"
     inkscape:window-width="2560"
     inkscape:window-height="1009"
     inkscape:window-x="-8"
     inkscape:window-y="0"
     inkscape:window-maximized="1" />
  <metadata
     id="metadata5">
    <rdf:RDF>
      <cc:Work
         rdf:about="">
        <dc:format>image/svg+xml</dc:format>
        <dc:type
           rdf:resource="http://purl.org/dc/dcmitype/StillImage" />
        <dc:title></dc:title>
      </cc:Work>
    </rdf:RDF>
  </metadata>
  <g
     inkscape:label="Layer 1"
     inkscape:groupmode="layer"
     id="layer1">
    <g
       id="g949"
       transform="matrix(1.0298404,0,0,1.0262851,-50.143939,-114.05226)">
      <path
         d="m 121.2823,143.65345 c 1.55751,-1.08303 1.89054,-2.64513 1.18181,-4.26438 -1.01353,-2.31563 -3.92642,-4.26367 -7.27428,-3.84563 -4.35469,0.54398 -6.21101,3.52601 -7.00088,5.79649 -1.64183,4.72052 1.71097,10.94564 7.56215,8.51994 2.66947,-1.10667 1.61678,-3.48333 5.5312,-6.20642"
         style="fill:#231f20;fill-opacity:1;fill-rule:nonzero;stroke:none;stroke-width:0.0352778"
         id="path32" />
      <path
         d="m 126.57079,147.23308 c -1.20438,1.66194 2.45675,4.82777 3.689,3.27413 1.51201,-1.90605 2.07998,-4.73639 -0.3302,-4.72581 0,0 -2.37314,0.0903 -3.3588,1.45168"
         style="fill:#231f20;fill-opacity:1;fill-rule:nonzero;stroke:none;stroke-width:0.0352778"
         id="path34" />
      <path
         d="m 132.58671,149.66125 c -0.79163,3.18594 -3.4798,5.3781 -4.98263,6.44384 -3.69711,2.62291 -7.68209,4.20617 -10.7255,4.80413 0.26493,-3.47839 -1.95439,-7.72866 -6.97866,-8.62365 -4.40972,-0.78564 -6.29532,-0.18592 -10.989024,-0.91793 -3.539419,-0.55104 -8.525228,-4.4697 -9.564864,-10.87191 -0.710142,-4.37515 -0.475545,-7.12082 -2.843742,-7.58613 -3.601509,-0.70767 -5.771092,6.27839 -5.411259,11.43706 0.577145,8.27193 3.579284,15.54162 9.501365,19.34915 -4.930776,0 -12.21352,-0.002 -16.110304,-0.003 4.893734,-3.98039 4.87927,-10.72056 2.172053,-14.23035 -2.379486,-3.08469 -6.00957,-2.76013 -8.620126,-1.95721 -0.8382,-2.73085 -1.564569,-5.35799 -1.859844,-6.59271 -1.526117,-6.37752 -8.749948,-9.03605 -13.653207,-4.43654 1.330678,-12.93636 12.347576,-23.65622 26.499258,-23.65622 7.050617,0 13.815131,2.83528 18.758959,7.73042 -1.570567,1.94628 -1.5494,4.49404 -1.54305,6.14116 0.01976,4.94065 4.348335,5.28531 5.685365,3.0614 1.58186,-2.63172 0.74895,-1.81715 3.4731,-4.40125 0.67239,-0.63712 0.96061,-1.57692 0.92886,-2.56434 8.70938,-0.77929 16.4719,4.21252 19.72205,11.60356 0.60854,2.05317 -0.91405,3.22827 -0.74966,5.56049 0.11713,1.6764 1.32468,2.3054 3.09351,3.02295 0.27834,0.15346 0.60925,0.2981 1.0093,0.43674 2.39501,0.82762 3.78072,3.8668 3.18805,6.25016 z m -61.317718,13.91673 c -3.689703,1.86867 -6.72712,1.85138 -8.002412,0.10055 -1.730022,-2.3742 0.288925,-6.84601 4.716992,-9.31545 3.62585,-2.02177 6.11505,-1.56704 7.291212,-0.3108 2.398536,2.56117 0.492477,7.24711 -4.005792,9.5257 z m 62.044088,-19.00167 c -1.50177,-2.35479 -3.3789,-2.72238 -3.96557,-3.00425 -0.20003,-7.46901 -4.29472,-13.88922 -10.24114,-17.48473 0.61207,-2.93511 -1.23261,-7.01216 -6.04273,-6.64704 -2.94499,0.22331 -4.62069,1.83974 -5.68043,3.58811 -0.4692,0.0155 -0.93945,0.0487 -1.409,0.0952 -1.08973,-2.77284 -3.97792,-3.79907 -6.956775,-1.72121 -5.261681,-5.23628 -12.47634,-8.27123 -19.997209,-8.27123 -8.460318,0 -16.459907,3.64914 -21.976999,10.36497 -1.290814,-1.1811 -3.272367,-2.10644 -5.758745,-0.47625 -4.2164,2.76401 -2.773892,8.82791 0.640292,9.95715 -0.784225,2.54036 -1.201561,5.1943 -1.228725,7.90046 -0.880181,1.63901 -1.526117,3.8728 -1.661231,6.94514 -0.30868,7.02804 1.977672,20.23498 15.13699,20.72005 2.87267,0.10619 5.398206,-0.28716 7.487003,-1.1617 3.626909,0.002 17.456151,0.01 22.39116,0.008 2.038703,0.72673 4.329642,1.12642 6.894339,1.12642 8.17845,0 13.8617,0.61525 15.54198,-3.80188 2.82045,-0.47978 6.80402,-1.56634 10.46339,-4.01885 5.21299,-0.19367 8.91399,-0.53375 10.66235,-3.04235 2.14771,-3.08081 0.88935,-9.10732 -4.29895,-11.07582"
         style="fill:#231f20;fill-opacity:1;fill-rule:nonzero;stroke:none;stroke-width:0.0352778"
         id="path36" />
    </g>
  </g>
</svg>
